<svg width="23" height="22" viewBox="0 0 23 22" fill="none" xmlns="http://www.w3.org/2000/svg">
<path d="M11.4127 0L15.6387 6.18342L22.8254 8.2918L18.2505 14.2217L18.4661 21.7082L11.4127 19.1897L4.35926 21.7082L4.57488 14.2217L0 8.2918L7.18669 6.18342L11.4127 0ZM11.4127 3.544L8.43495 7.90151L3.36968 9.387L6.59461 13.5655L6.44168 18.84L11.4127 17.066L16.3827 18.84L16.2308 13.5655L19.4547 9.387L14.3904 7.90151L11.4127 3.544ZM9.41268 11.5C9.41268 12.6046 10.3081 13.5 11.4127 13.5C12.5173 13.5 13.4127 12.6046 13.4127 11.5H15.4127C15.4127 13.7091 13.6218 15.5 11.4127 15.5C9.20354 15.5 7.41268 13.7091 7.41268 11.5H9.41268Z" fill="#FFFEEA"/>
</svg>
