<svg width="2417" height="385" viewBox="0 0 2417 385" fill="none" xmlns="http://www.w3.org/2000/svg">
<path d="M715.709 216.55C707.02 214.407 697.736 214.645 689.166 217.383C696.07 164.654 645.007 109.069 591.921 140.254C588.232 116.567 576.567 93.2381 556.57 79.788C536.693 66.457 508.008 65.1477 489.32 80.2641C488.844 54.1973 472.3 30.0348 450.042 16.3468C427.903 2.6587 400.883 -1.38821 374.936 0.397188C346.25 2.53967 317.922 13.4901 296.497 32.8915C271.263 55.6256 266.859 85.7394 268.764 118.71C255.195 116.091 240.912 115.139 227.7 119.305C190.087 130.85 183.422 182.389 192.825 215.121C169.138 210.241 143.905 206.194 121.052 214.407C98.3175 222.62 79.6302 247.378 86.6528 270.588C73.2028 265.113 59.3957 259.518 44.9935 258.804C30.4722 258.09 14.8798 262.97 6.42883 274.873C-4.99774 290.703 0.120422 313.676 11.547 329.625C26.6634 350.931 51.3019 364.381 76.8926 369.975C121.052 379.735 169.615 366.881 203.18 336.529C196.872 342.242 249.958 372.356 254.957 374.022C276.263 381.045 297.925 388.305 320.421 382.83C344.822 376.879 365.771 360.572 380.411 340.338C431.592 381.402 512.173 379.616 561.332 336.291C609.061 375.569 685.953 372.713 730.588 330.101C749.156 337.481 772.485 340.695 787.244 327.245C798.552 317.008 800.575 298.083 791.886 285.585C783.197 273.087 764.748 268.445 751.179 275.587C755.464 258.804 749.87 239.998 737.372 228.095C731.302 222.501 723.803 218.573 715.709 216.55Z" fill="white"/>
<path d="M268.763 118.71C266.859 85.7394 271.263 55.6256 296.497 32.8915C317.921 13.4901 346.25 2.53967 374.935 0.397188C400.883 -1.38821 427.902 2.6587 450.041 16.3468C406.12 10.0384 357.676 12.1808 322.563 39.3189C313.636 46.3415 305.662 54.7924 300.424 64.7906C294.354 75.9792 291.854 88.8341 292.093 101.57C292.688 131.208 308.637 159.417 331.847 177.747C354.939 196.077 384.814 205.004 414.333 205.718C384.219 212.741 351.487 207.742 324.706 192.149C297.925 176.676 270.549 149.657 268.763 118.71Z" fill="white"/>
<path d="M489.321 80.2641C508.008 65.1477 536.693 66.457 556.571 79.788C576.567 93.238 588.232 116.567 591.922 140.254C594.421 156.084 578.948 169.772 564.784 177.39C550.501 185.008 533.718 186.555 517.768 184.293C533.48 182.746 546.216 169.891 552.286 155.37C560.142 136.802 558.594 114.187 547.049 97.761C535.503 81.2163 508.96 75.384 489.321 80.2641Z" fill="white"/>
<path d="M689.166 217.383C697.736 214.645 707.02 214.407 715.709 216.55C723.803 218.573 731.302 222.501 737.372 228.095C749.87 239.998 755.464 258.804 751.179 275.587C764.748 268.445 783.197 273.087 791.886 285.585C800.575 298.083 798.552 317.008 787.244 327.245C772.485 340.695 749.156 337.481 730.588 330.101C685.953 372.713 609.061 375.569 561.332 336.291C512.173 379.616 431.592 381.402 380.411 340.338C365.771 360.572 344.822 376.879 320.421 382.83C297.925 388.305 276.263 381.045 254.957 374.022C249.958 372.356 196.872 342.242 203.18 336.529C169.615 366.881 121.052 379.735 76.8926 369.975C51.3019 364.381 26.6634 350.931 11.547 329.625C0.120422 313.676 -4.99774 290.703 6.42883 274.873C14.8798 262.97 30.4722 258.09 44.9935 258.804C59.3957 259.518 73.2028 265.113 86.6528 270.588C79.6302 247.378 98.3175 222.62 121.052 214.407C143.905 206.194 169.138 210.241 192.825 215.121C183.422 182.389 190.087 130.851 227.7 119.305C235.555 116.805 243.768 116.21 251.981 116.567C246.387 144.301 249.124 174.533 264.955 197.863C281.5 222.62 314.708 237.141 342.56 226.667C370.651 252.139 410.168 264.399 447.78 259.28C485.273 254.162 520.148 231.904 540.502 199.886C561.57 214.169 593.35 212.741 610.371 193.697C628.106 174.057 619.298 154.299 609.537 134.54C609.299 134.064 609.18 133.588 608.942 133.112C655.363 121.09 695.237 170.367 689.166 217.383Z" fill="white"/>
<path d="M715.709 216.55C707.02 214.407 697.736 214.645 689.166 217.383C695.236 170.367 655.362 121.09 608.942 133.112C626.439 134.183 643.341 142.872 654.529 156.441C665.718 170.01 671.55 187.626 671.788 205.123C671.907 212.027 671.193 218.93 668.574 225.239C661.909 242.021 644.055 251.068 627.272 257.614C643.103 261.304 659.29 252.734 672.383 242.974C685.476 233.213 699.997 220.954 715.709 216.55Z" fill="#DFF2FD"/>
<path d="M203.179 336.529C169.614 366.881 121.051 379.735 76.8918 369.975C51.301 364.381 26.6625 350.931 11.5461 329.625C0.119568 313.676 -4.99858 290.703 6.42799 274.873C6.18994 305.939 36.5417 332.006 66.4174 340.338C96.2931 348.788 128.668 341.528 156.759 328.197C170.209 321.769 183.183 313.676 192.586 302.13C201.87 290.465 207.107 274.873 203.417 260.352C214.487 282.967 210.44 312.366 203.179 336.529Z" fill="#DFF2FD"/>
<path d="M613.329 245.966C618.584 244.67 624.199 244.814 629.382 246.47C625.207 214.58 656.089 180.963 688.194 199.823C690.426 185.498 697.48 171.389 709.574 163.255C721.596 155.192 738.944 154.4 750.246 163.542C750.534 147.778 760.54 133.165 774.001 124.886C787.39 116.608 803.731 114.16 819.424 115.24C836.772 116.536 853.905 123.159 866.862 134.892C882.123 148.641 884.787 166.854 883.635 186.794C891.841 185.21 900.479 184.634 908.47 187.154C931.217 194.136 935.248 225.306 929.561 245.102C943.887 242.151 959.148 239.703 972.969 244.67C986.718 249.637 998.02 264.61 993.773 278.647C1001.91 275.336 1010.26 271.953 1018.97 271.521C1027.75 271.089 1037.18 274.04 1042.29 281.239C1049.2 290.813 1046.11 304.706 1039.2 314.352C1030.05 327.237 1015.15 335.372 999.675 338.755C972.969 344.658 943.599 336.883 923.299 318.527C927.114 321.982 895.008 340.195 891.985 341.202C879.1 345.45 865.998 349.841 852.393 346.529C837.636 342.93 824.967 333.068 816.112 320.831C785.159 345.666 736.425 344.586 706.695 318.383C677.828 342.138 631.326 340.411 604.331 314.64C593.102 319.103 578.992 321.047 570.066 312.912C563.228 306.721 562.004 295.276 567.259 287.717C572.514 280.159 583.671 277.351 591.878 281.671C589.286 271.521 592.67 260.147 600.228 252.948C603.899 249.565 608.434 247.19 613.329 245.966Z" fill="white"/>
<path d="M883.634 186.794C884.786 166.854 882.122 148.641 866.861 134.892C853.904 123.159 836.771 116.536 819.423 115.24C803.73 114.16 787.389 116.608 774 124.886C800.563 121.071 829.861 122.367 851.096 138.779C856.495 143.027 861.318 148.138 864.486 154.184C868.157 160.951 869.669 168.725 869.525 176.428C869.165 194.352 859.519 211.413 845.482 222.499C831.516 233.584 813.448 238.983 795.596 239.415C813.808 243.662 833.604 240.639 849.801 231.209C865.997 221.851 882.554 205.51 883.634 186.794Z" fill="white"/>
<path d="M750.245 163.542C738.943 154.4 721.594 155.192 709.573 163.254C697.479 171.389 690.425 185.498 688.193 199.823C686.681 209.397 696.039 217.675 704.606 222.282C713.244 226.89 723.394 227.825 733.04 226.458C723.538 225.522 715.835 217.747 712.164 208.965C707.413 197.735 708.349 184.058 715.332 174.124C722.314 164.118 738.367 160.591 750.245 163.542Z" fill="white"/>
<path d="M629.382 246.469C624.199 244.814 618.584 244.67 613.329 245.966C608.434 247.189 603.899 249.565 600.228 252.948C592.67 260.147 589.286 271.52 591.878 281.67C583.671 277.351 572.514 280.159 567.259 287.717C562.004 295.276 563.228 306.721 570.066 312.912C578.992 321.046 593.102 319.103 604.331 314.64C631.326 340.41 677.828 342.138 706.695 318.383C736.425 344.586 785.159 345.665 816.112 320.83C824.967 333.068 837.636 342.93 852.393 346.529C865.998 349.841 879.1 345.449 891.985 341.202C895.008 340.195 927.114 321.982 923.299 318.527C943.599 336.883 972.969 344.658 999.675 338.755C1015.15 335.372 1030.05 327.237 1039.2 314.352C1046.11 304.706 1049.2 290.813 1042.29 281.238C1037.18 274.04 1027.75 271.089 1018.97 271.52C1010.26 271.952 1001.91 275.336 993.773 278.647C998.02 264.61 986.718 249.637 972.969 244.67C959.148 239.703 943.887 242.15 929.561 245.102C935.248 225.306 931.217 194.136 908.47 187.153C903.719 185.642 898.752 185.282 893.785 185.498C897.168 202.27 895.512 220.555 885.938 234.664C875.932 249.637 855.848 258.419 839.004 252.084C822.015 267.489 798.116 274.904 775.369 271.808C752.693 268.713 731.602 255.252 719.292 235.888C706.551 244.526 687.331 243.662 677.037 232.144C666.311 220.267 671.638 208.317 677.54 196.368C677.684 196.08 677.756 195.792 677.9 195.504C649.826 188.233 625.711 218.035 629.382 246.469Z" fill="white"/>
<path d="M613.328 245.966C618.583 244.67 624.198 244.814 629.381 246.469C625.71 218.035 649.825 188.233 677.899 195.504C667.317 196.152 657.095 201.407 650.329 209.613C643.562 217.819 640.035 228.473 639.891 239.055C639.819 243.23 640.251 247.405 641.834 251.221C645.866 261.37 656.663 266.841 666.813 270.801C657.239 273.032 647.449 267.849 639.531 261.946C631.612 256.044 622.83 248.629 613.328 245.966Z" fill="#DFF2FD"/>
<path d="M923.298 298.527C943.598 316.884 972.968 324.658 999.675 318.755C1015.15 315.372 1030.05 307.237 1039.19 294.352C1046.11 284.706 1049.2 270.813 1042.29 261.239C1042.43 280.027 1024.08 295.792 1006.01 300.831C987.941 305.942 968.361 301.551 951.373 293.488C943.238 289.601 935.392 284.706 929.705 277.723C924.09 270.669 920.923 261.239 923.154 252.457C916.46 266.134 918.907 283.914 923.298 298.527Z" fill="#DFF2FD"/>
<path d="M1483.53 228.934C1490.83 227.134 1498.63 227.334 1505.83 229.634C1500.03 185.334 1542.93 138.634 1587.53 164.834C1590.63 144.934 1600.43 125.334 1617.23 114.034C1633.93 102.834 1658.03 101.734 1673.73 114.434C1674.13 92.5337 1688.03 72.2337 1706.73 60.7337C1725.33 49.2337 1748.03 45.8337 1769.83 47.3337C1793.93 49.1337 1817.73 58.3337 1835.73 74.6337C1856.93 93.7337 1860.63 119.034 1859.03 146.734C1870.43 144.534 1882.43 143.734 1893.53 147.234C1925.13 156.934 1930.73 200.234 1922.83 227.734C1942.73 223.634 1963.93 220.234 1983.13 227.134C2002.23 234.034 2017.93 254.834 2012.03 274.334C2023.33 269.734 2034.93 265.034 2047.03 264.434C2059.23 263.834 2072.33 267.934 2079.43 277.934C2089.03 291.234 2084.73 310.534 2075.13 323.934C2062.43 341.834 2041.73 353.134 2020.23 357.834C1983.13 366.034 1942.33 355.234 1914.13 329.734C1919.43 334.534 1874.83 359.834 1870.63 361.234C1852.73 367.134 1834.53 373.234 1815.63 368.634C1795.13 363.634 1777.53 349.934 1765.23 332.934C1722.23 367.434 1654.53 365.934 1613.23 329.534C1573.13 362.534 1508.53 360.134 1471.03 324.334C1455.43 330.534 1435.83 333.234 1423.43 321.934C1413.93 313.334 1412.23 297.434 1419.53 286.934C1426.83 276.434 1442.33 272.534 1453.73 278.534C1450.13 264.434 1454.83 248.634 1465.33 238.634C1470.43 233.934 1476.73 230.634 1483.53 228.934Z" fill="white"/>
<path d="M1859.03 146.734C1860.63 119.034 1856.93 93.7337 1835.73 74.6337C1817.73 58.3337 1793.93 49.1337 1769.83 47.3337C1748.03 45.8337 1725.33 49.2337 1706.73 60.7337C1743.63 55.4337 1784.33 57.2337 1813.83 80.0337C1821.33 85.9337 1828.03 93.0337 1832.43 101.434C1837.53 110.834 1839.63 121.634 1839.43 132.334C1838.93 157.234 1825.53 180.934 1806.03 196.334C1786.63 211.734 1761.53 219.234 1736.73 219.834C1762.03 225.734 1789.53 221.534 1812.03 208.434C1834.53 195.434 1857.53 172.734 1859.03 146.734Z" fill="white"/>
<path d="M1673.73 114.434C1658.03 101.734 1633.93 102.834 1617.23 114.034C1600.43 125.334 1590.63 144.934 1587.53 164.834C1585.43 178.134 1598.43 189.634 1610.33 196.034C1622.33 202.434 1636.43 203.734 1649.83 201.834C1636.63 200.534 1625.93 189.734 1620.83 177.534C1614.23 161.934 1615.53 142.934 1625.23 129.134C1634.93 115.234 1657.23 110.334 1673.73 114.434Z" fill="white"/>
<path d="M1505.83 229.634C1498.63 227.334 1490.83 227.134 1483.53 228.934C1476.73 230.634 1470.43 233.934 1465.33 238.634C1454.83 248.634 1450.13 264.434 1453.73 278.534C1442.33 272.534 1426.83 276.434 1419.53 286.934C1412.23 297.434 1413.93 313.334 1423.43 321.934C1435.83 333.234 1455.43 330.534 1471.03 324.334C1508.53 360.134 1573.13 362.534 1613.23 329.534C1654.53 365.934 1722.23 367.434 1765.23 332.934C1777.53 349.934 1795.13 363.634 1815.63 368.634C1834.53 373.234 1852.73 367.134 1870.63 361.234C1874.83 359.834 1919.43 334.534 1914.13 329.734C1942.33 355.234 1983.13 366.034 2020.23 357.834C2041.73 353.134 2062.43 341.834 2075.13 323.934C2084.73 310.534 2089.03 291.234 2079.43 277.934C2072.33 267.934 2059.23 263.834 2047.03 264.434C2034.93 265.034 2023.33 269.734 2012.03 274.334C2017.93 254.834 2002.23 234.034 1983.13 227.134C1963.93 220.234 1942.73 223.634 1922.83 227.734C1930.73 200.234 1925.13 156.934 1893.53 147.234C1886.93 145.134 1880.03 144.634 1873.13 144.934C1877.83 168.234 1875.53 193.634 1862.23 213.234C1848.33 234.034 1820.43 246.234 1797.03 237.434C1773.43 258.834 1740.23 269.134 1708.63 264.834C1677.13 260.534 1647.83 241.834 1630.73 214.934C1613.03 226.934 1586.33 225.734 1572.03 209.734C1557.13 193.234 1564.53 176.634 1572.73 160.034C1572.93 159.634 1573.03 159.234 1573.23 158.834C1534.23 148.734 1500.73 190.134 1505.83 229.634Z" fill="white"/>
<path d="M1483.53 228.934C1490.83 227.134 1498.63 227.334 1505.83 229.634C1500.73 190.134 1534.23 148.734 1573.23 158.834C1558.53 159.734 1544.33 167.034 1534.93 178.434C1525.53 189.834 1520.63 204.634 1520.43 219.334C1520.33 225.134 1520.93 230.934 1523.13 236.234C1528.73 250.334 1543.73 257.934 1557.83 263.434C1544.53 266.534 1530.93 259.334 1519.93 251.134C1508.93 242.934 1496.73 232.634 1483.53 228.934Z" fill="#DFF2FD"/>
<path d="M1726.95 296C1755.15 321.5 1795.95 332.3 1833.05 324.1C1854.55 319.4 1875.25 308.1 1887.95 290.2C1897.55 276.8 1901.85 257.5 1892.25 244.2C1892.45 270.3 1866.95 292.2 1841.85 299.2C1816.75 306.3 1789.55 300.2 1765.95 289C1754.65 283.6 1743.75 276.8 1735.85 267.1C1728.05 257.3 1723.65 244.2 1726.75 232C1717.45 251 1720.85 275.7 1726.95 296Z" fill="#DFF2FD"/>
<path d="M852.526 228.934C859.826 227.134 867.626 227.334 874.826 229.634C869.026 185.334 911.926 138.634 956.526 164.834C959.626 144.934 969.426 125.334 986.226 114.034C1002.93 102.834 1027.03 101.734 1042.73 114.434C1043.13 92.5337 1057.03 72.2337 1075.73 60.7337C1094.33 49.2337 1117.03 45.8337 1138.83 47.3337C1162.93 49.1337 1186.73 58.3337 1204.73 74.6337C1225.93 93.7337 1229.63 119.034 1228.03 146.734C1239.43 144.534 1251.43 143.734 1262.53 147.234C1294.13 156.934 1299.73 200.234 1291.83 227.734C1311.73 223.634 1332.93 220.234 1352.13 227.134C1371.23 234.034 1386.93 254.834 1381.03 274.334C1392.33 269.734 1403.93 265.034 1416.03 264.434C1428.23 263.834 1441.33 267.934 1448.43 277.934C1458.03 291.234 1453.73 310.534 1444.13 323.934C1431.43 341.834 1410.73 353.134 1389.23 357.834C1352.13 366.034 1311.33 355.234 1283.13 329.734C1288.43 334.534 1243.83 359.834 1239.63 361.234C1221.73 367.134 1203.53 373.234 1184.63 368.634C1164.13 363.634 1146.53 349.934 1134.23 332.934C1091.23 367.434 1023.53 365.934 982.226 329.534C942.126 362.534 877.526 360.134 840.026 324.334C824.426 330.534 804.826 333.234 792.426 321.934C782.926 313.334 781.226 297.434 788.526 286.934C795.826 276.434 811.326 272.534 822.726 278.534C819.126 264.434 823.826 248.634 834.326 238.634C839.426 233.934 845.726 230.634 852.526 228.934Z" fill="white"/>
<path d="M1228.03 146.734C1229.63 119.034 1225.93 93.7337 1204.73 74.6337C1186.73 58.3337 1162.93 49.1337 1138.83 47.3337C1117.03 45.8337 1094.33 49.2337 1075.73 60.7337C1112.63 55.4337 1153.33 57.2337 1182.83 80.0337C1190.33 85.9337 1197.03 93.0337 1201.43 101.434C1206.53 110.834 1208.63 121.634 1208.43 132.334C1207.93 157.234 1194.53 180.934 1175.03 196.334C1155.63 211.734 1130.53 219.234 1105.73 219.834C1131.03 225.734 1158.53 221.534 1181.03 208.434C1203.53 195.434 1226.53 172.734 1228.03 146.734Z" fill="white"/>
<path d="M1042.73 114.434C1027.03 101.734 1002.93 102.834 986.226 114.034C969.426 125.334 959.626 144.934 956.526 164.834C954.426 178.134 967.426 189.634 979.326 196.034C991.326 202.434 1005.43 203.734 1018.83 201.834C1005.63 200.534 994.926 189.734 989.826 177.534C983.226 161.934 984.526 142.934 994.226 129.134C1003.93 115.234 1026.23 110.334 1042.73 114.434Z" fill="white"/>
<path d="M874.826 229.634C867.626 227.334 859.826 227.134 852.526 228.934C845.726 230.634 839.426 233.934 834.326 238.634C823.826 248.634 819.126 264.434 822.726 278.534C811.326 272.534 795.826 276.434 788.526 286.934C781.226 297.434 782.926 313.334 792.426 321.934C804.826 333.234 824.426 330.534 840.026 324.334C877.526 360.134 942.126 362.534 982.226 329.534C1023.53 365.934 1091.23 367.434 1134.23 332.934C1146.53 349.934 1164.13 363.634 1184.63 368.634C1203.53 373.234 1221.73 367.134 1239.63 361.234C1243.83 359.834 1288.43 334.534 1283.13 329.734C1311.33 355.234 1352.13 366.034 1389.23 357.834C1410.73 353.134 1431.43 341.834 1444.13 323.934C1453.73 310.534 1458.03 291.234 1448.43 277.934C1441.33 267.934 1428.23 263.834 1416.03 264.434C1403.93 265.034 1392.33 269.734 1381.03 274.334C1386.93 254.834 1371.23 234.034 1352.13 227.134C1332.93 220.234 1311.73 223.634 1291.83 227.734C1299.73 200.234 1294.13 156.934 1262.53 147.234C1255.93 145.134 1249.03 144.634 1242.13 144.934C1246.83 168.234 1244.53 193.634 1231.23 213.234C1217.33 234.034 1189.43 246.234 1166.03 237.434C1142.43 258.834 1109.23 269.134 1077.63 264.834C1046.13 260.534 1016.83 241.834 999.726 214.934C982.026 226.934 955.326 225.734 941.026 209.734C926.126 193.234 933.526 176.634 941.726 160.034C941.926 159.634 942.026 159.234 942.226 158.834C903.226 148.734 869.726 190.134 874.826 229.634Z" fill="white"/>
<path d="M852.525 228.934C859.825 227.134 867.625 227.334 874.825 229.634C869.725 190.134 903.225 148.734 942.225 158.834C927.525 159.734 913.325 167.034 903.925 178.434C894.525 189.834 889.625 204.634 889.425 219.334C889.325 225.134 889.925 230.934 892.125 236.234C897.725 250.334 912.725 257.934 926.825 263.434C913.525 266.534 899.925 259.334 888.925 251.134C877.925 242.934 865.725 232.634 852.525 228.934Z" fill="#DFF2FD"/>
<path d="M1503.42 123.741C1475.42 114.541 1442.72 126.041 1424.02 148.841C1406.32 124.141 1373.02 111.841 1343.52 119.041C1313.92 126.141 1290.02 152.341 1285.52 182.341C1270.02 177.841 1253.12 176.341 1237.92 181.741C1222.72 187.041 1209.72 200.241 1207.62 216.241C1196.32 213.841 1184.72 211.541 1173.32 213.141C1161.92 214.741 1150.42 221.141 1145.92 231.741C1139.22 247.441 1151.02 266.541 1167.12 272.341C1183.22 278.241 1201.32 273.841 1216.72 266.341C1230.82 284.241 1252.22 296.141 1274.92 298.541C1297.52 300.941 1321.02 293.841 1338.52 279.341C1357.12 300.241 1385.12 312.541 1413.02 312.041C1441.02 311.541 1468.52 298.341 1486.42 276.841C1505.42 291.741 1549.12 309.341 1569.52 288.241C1578.12 279.241 1580.62 264.941 1575.52 253.641C1588.02 253.741 1600.22 245.541 1604.92 233.941C1609.62 222.341 1606.52 208.041 1597.42 199.441C1579.02 181.941 1559.32 193.941 1545.92 209.641C1546.12 175.041 1542.92 136.141 1503.42 123.741Z" fill="white"/>
<path d="M1285.52 182.341C1270.02 177.841 1253.12 176.341 1237.92 181.741C1222.72 187.041 1209.72 200.241 1207.62 216.241C1196.32 213.841 1184.72 211.541 1173.32 213.141C1161.92 214.741 1150.42 221.141 1145.92 231.741C1139.22 247.441 1151.02 266.541 1167.12 272.341C1183.22 278.241 1201.32 273.841 1216.72 266.341C1230.82 284.241 1252.22 296.141 1274.92 298.541C1297.52 300.941 1321.02 293.841 1338.52 279.341C1357.12 300.241 1385.12 312.541 1413.02 312.041C1441.02 311.541 1468.52 298.341 1486.42 276.841C1505.42 291.741 1549.12 309.341 1569.52 288.241C1578.12 279.241 1580.62 264.941 1575.52 253.641C1588.02 253.741 1600.22 245.541 1604.92 233.941C1609.62 222.341 1606.52 208.041 1597.42 199.441C1579.02 181.941 1559.32 193.941 1545.92 209.641C1546.12 182.741 1544.22 153.341 1524.92 135.741C1526.62 155.141 1523.22 175.241 1512.62 191.441C1500.32 210.341 1477.52 222.941 1455.32 219.741C1446.52 218.441 1437.72 214.641 1432.22 207.641C1424.92 198.541 1425.22 185.241 1418.02 176.341C1412.22 169.241 1402.22 166.041 1394.52 161.841C1403.32 166.641 1407.12 178.041 1404.72 187.841C1402.42 197.541 1394.92 205.441 1386.12 210.241C1373.12 217.441 1356.82 218.441 1343.22 212.541C1329.62 206.541 1319.22 193.541 1317.12 178.841C1314.72 162.841 1321.92 146.541 1332.92 134.741C1339.32 127.741 1347.12 122.041 1355.32 117.141C1351.32 117.474 1347.38 118.108 1343.52 119.041C1313.92 126.141 1290.02 152.341 1285.52 182.341Z" fill="white"/>
<path d="M1486.42 276.841C1505.42 291.741 1549.12 309.341 1569.52 288.241C1578.12 279.241 1580.62 264.941 1575.52 253.641C1588.02 253.741 1600.22 245.541 1604.92 233.941C1609.62 222.341 1606.52 208.041 1597.42 199.441C1598.52 207.941 1596.62 215.541 1592.62 223.141C1588.52 230.741 1580.92 236.741 1572.32 237.241C1563.72 237.841 1554.72 232.141 1552.82 223.741C1550.22 228.641 1552.72 234.741 1556.02 239.241C1559.42 243.741 1563.62 247.741 1565.12 253.141C1567.42 261.341 1562.32 270.041 1555.12 274.541C1547.92 278.941 1539.22 279.941 1530.72 280.241C1514.92 280.941 1501.32 282.141 1486.42 276.841Z" fill="#DFF2FD"/>
<path d="M1956.56 255.074C1897.38 222.483 1892.08 128.238 1954.44 96.7057C1962.09 92.823 1973.5 86.8224 1981.97 85.5282C1986.33 84.9399 2014.56 88.5873 2014.33 94.9409C2015.27 73.2917 2031.39 54.937 2049.98 43.9947C2096.81 16.4627 2163.64 30.9347 2194.82 75.2919C2226.11 119.767 2217.05 187.538 2175.28 222.247C2191.87 214.835 2213.17 219.776 2224.82 233.66C2236.47 247.661 2237.53 269.428 2227.29 284.489C2249.17 271.781 2280.59 279.547 2294 301.078C2327.3 293.901 2362.71 296.843 2394.36 309.315C2401.42 312.138 2408.6 315.668 2413.19 321.786C2417.66 327.787 2418.72 337.2 2413.54 342.729C2410.25 346.377 2405.31 347.671 2400.48 348.612C2382.25 352.26 2363.42 352.377 2344.83 352.495C2257.76 352.887 2170.7 353.279 2083.63 353.672C2074.92 353.789 2065.86 353.789 2057.86 350.142C2049.86 346.495 2043.27 338.258 2044.45 329.552C2031.74 339.67 2016.68 347.436 2000.56 349.201C1984.44 350.966 1967.15 346.024 1956.09 334.023C1905.38 347.789 1851.84 350.966 1799.84 343.318C1791.25 342.141 1782.42 340.494 1775.25 335.67C1767.95 330.964 1762.66 322.257 1764.3 313.786C1765.83 305.196 1773.95 299.196 1782.42 297.313C1790.89 295.431 1799.72 296.96 1808.31 298.725C1804.9 282.135 1814.9 264.957 1829.13 255.78C1843.25 246.485 1860.67 243.779 1877.61 243.308C1904.32 242.484 1931.26 246.485 1956.56 255.074Z" fill="white"/>
<path d="M1782.42 297.313C1773.95 299.196 1765.83 305.197 1764.3 313.786C1762.66 322.257 1767.95 330.964 1775.25 335.67C1782.42 340.494 1791.25 342.141 1799.84 343.318C1851.84 350.966 1905.38 347.789 1956.09 334.023C1967.15 346.024 1984.44 350.966 2000.56 349.201C2016.68 347.436 2031.74 339.67 2044.45 329.552C2043.27 338.259 2049.86 346.495 2057.86 350.142C2065.86 353.789 2074.92 353.789 2083.63 353.672C2170.7 353.28 2257.76 352.887 2344.83 352.495C2363.42 352.378 2382.25 352.26 2400.48 348.613C2405.31 347.671 2410.25 346.377 2413.54 342.73C2418.72 337.2 2417.66 327.787 2413.19 321.786C2411.43 319.551 2409.43 317.551 2407.19 316.021C2380.72 323.669 2351.42 320.845 2323.89 316.021C2314.47 314.256 2304.47 312.021 2298 304.961C2296.94 303.785 2296 302.373 2295.3 300.843C2294.83 300.922 2294.39 301 2294 301.079C2280.59 279.547 2249.17 271.782 2227.29 284.489C2237.53 269.428 2236.47 247.662 2224.82 233.66C2213.17 219.777 2191.87 214.835 2175.28 222.247C2206.46 196.363 2219.41 151.888 2210.94 112.59C2206.93 139.651 2197.52 166.007 2180.7 187.538C2160.81 212.835 2129.75 230.366 2097.51 229.542C2093.28 196.363 2071.75 166.007 2041.98 150.829C2058.1 163.065 2058.57 189.891 2044.8 204.834C2030.92 219.659 2006.8 222.247 1988.56 213.423C1970.32 204.481 1957.97 186.009 1953.15 166.36C1945.97 136.945 1956.09 112.354 1971.38 88.7051C1965.38 91.0582 1959.15 94.235 1954.44 96.7059C1892.08 128.238 1897.38 222.483 1956.56 255.074C1950.2 252.956 1943.77 251.113 1937.26 249.544C1915.85 255.192 1892.08 258.721 1870.78 264.487C1848.43 270.605 1825.96 284.371 1819.13 306.608C1815.72 303.785 1812.07 301.079 1808.31 298.725C1799.72 296.961 1790.89 295.431 1782.42 297.313Z" fill="white"/>
<path d="M1956.56 255.074C1897.38 222.483 1892.08 128.238 1954.44 96.7059C1959.15 94.235 1965.38 91.0582 1971.38 88.7051C1940.2 103.765 1924.08 139.769 1923.5 174.478C1923.26 192.362 1926.32 211.423 1938.09 225.071C1948.56 237.308 1965.03 243.426 1981.15 244.367C1997.27 245.426 2013.39 241.661 2028.8 237.072C2010.56 254.25 1978.56 267.311 1956.56 255.074Z" fill="#DFF2FD"/>
<path d="M2227.29 284.489C2237.53 269.428 2236.47 247.662 2224.82 233.66C2213.17 219.777 2191.87 214.835 2175.28 222.247C2187.52 220.012 2199.29 231.542 2201.76 243.779C2204.11 256.015 2199.05 268.605 2191.76 278.723C2188.7 282.842 2185.17 286.842 2180.58 289.43C2173.75 293.195 2165.4 293.431 2157.64 293.078C2139.63 292.136 2119.28 287.195 2110.93 271.193C2109.4 283.43 2117.87 295.431 2128.69 301.432C2139.63 307.432 2152.46 308.726 2164.93 308.962C2176.7 309.197 2188.58 308.609 2199.87 305.197C2211.05 301.785 2220.58 294.137 2227.29 284.489Z" fill="#DFF2FD"/>
<path d="M1410.75 241.688C1367.18 217.696 1363.29 148.318 1409.19 125.105C1414.82 122.247 1423.22 117.83 1429.46 116.877C1432.66 116.444 1453.45 119.129 1453.28 123.806C1453.97 107.869 1465.84 94.3573 1479.52 86.3022C1513.99 66.0345 1563.19 76.688 1586.14 109.342C1609.18 142.082 1602.51 191.971 1571.77 217.523C1583.98 212.066 1599.66 215.704 1608.23 225.924C1616.8 236.231 1617.58 252.255 1610.05 263.342C1626.16 253.987 1649.29 259.704 1659.16 275.554C1683.67 270.271 1709.74 272.436 1733.04 281.617C1738.24 283.696 1743.52 286.294 1746.9 290.798C1750.19 295.216 1750.97 302.145 1747.16 306.215C1744.73 308.901 1741.1 309.853 1737.54 310.546C1724.12 313.231 1710.26 313.318 1696.58 313.404C1632.48 313.693 1568.39 313.982 1504.29 314.271C1497.88 314.357 1491.21 314.357 1485.32 311.672C1479.43 308.987 1474.58 302.924 1475.45 296.515C1466.1 303.964 1455.01 309.68 1443.14 310.979C1431.28 312.278 1418.55 308.641 1410.4 299.806C1373.07 309.94 1333.66 312.278 1295.38 306.649C1289.06 305.782 1282.56 304.57 1277.28 301.019C1271.91 297.554 1268.01 291.145 1269.22 284.908C1270.35 278.586 1276.32 274.168 1282.56 272.782C1288.8 271.397 1295.29 272.523 1301.62 273.822C1299.1 261.609 1306.47 248.964 1316.95 242.208C1327.34 235.365 1340.16 233.373 1352.63 233.027C1372.29 232.42 1392.13 235.365 1410.75 241.688Z" fill="white"/>
<path d="M1282.56 272.783C1276.32 274.168 1270.35 278.586 1269.22 284.909C1268.01 291.145 1271.91 297.554 1277.28 301.019C1282.56 304.57 1289.06 305.783 1295.38 306.649C1333.66 312.279 1373.07 309.94 1410.4 299.806C1418.55 308.641 1431.28 312.279 1443.14 310.979C1455.01 309.68 1466.1 303.964 1475.45 296.515C1474.58 302.924 1479.43 308.987 1485.32 311.672C1491.21 314.357 1497.88 314.357 1504.29 314.271C1568.39 313.982 1632.48 313.693 1696.58 313.405C1710.26 313.318 1724.12 313.231 1737.54 310.546C1741.1 309.853 1744.73 308.901 1747.16 306.216C1750.97 302.145 1750.19 295.216 1746.9 290.798C1745.6 289.153 1744.13 287.68 1742.48 286.554C1722.99 292.184 1701.43 290.105 1681.16 286.554C1674.23 285.255 1666.87 283.609 1662.1 278.412C1661.32 277.546 1660.63 276.507 1660.11 275.381C1659.77 275.439 1659.45 275.496 1659.16 275.554C1649.29 259.704 1626.16 253.987 1610.05 263.342C1617.58 252.255 1616.8 236.231 1608.23 225.924C1599.66 215.704 1583.98 212.066 1571.77 217.523C1594.72 198.468 1604.25 165.727 1598.01 136.798C1595.06 156.72 1588.14 176.121 1575.75 191.972C1561.11 210.594 1538.25 223.499 1514.51 222.893C1511.4 198.468 1495.55 176.121 1473.63 164.948C1485.5 173.956 1485.84 193.704 1475.71 204.704C1465.49 215.617 1447.73 217.523 1434.31 211.027C1420.88 204.444 1411.79 190.846 1408.24 176.381C1402.95 154.728 1410.4 136.625 1421.66 119.216C1417.25 120.948 1412.66 123.287 1409.19 125.105C1363.29 148.318 1367.18 217.696 1410.75 241.688C1406.07 240.129 1401.34 238.772 1396.55 237.617C1380.78 241.775 1363.29 244.373 1347.61 248.617C1331.15 253.121 1314.61 263.255 1309.58 279.625C1307.07 277.546 1304.39 275.554 1301.62 273.822C1295.29 272.523 1288.8 271.397 1282.56 272.783Z" fill="white"/>
<path d="M1410.75 241.688C1367.18 217.696 1363.29 148.318 1409.19 125.105C1412.66 123.287 1417.25 120.948 1421.66 119.216C1398.71 130.302 1386.84 156.806 1386.41 182.357C1386.24 195.523 1388.49 209.554 1397.15 219.601C1404.86 228.609 1416.99 233.113 1428.85 233.806C1440.72 234.586 1452.58 231.814 1463.93 228.436C1450.51 241.082 1426.95 250.696 1410.75 241.688Z" fill="#DFF2FD"/>
<path d="M1610.05 263.342C1617.58 252.255 1616.8 236.231 1608.23 225.924C1599.66 215.704 1583.98 212.066 1571.77 217.523C1580.77 215.877 1589.43 224.365 1591.25 233.373C1592.99 242.381 1589.26 251.649 1583.89 259.098C1581.64 262.129 1579.04 265.074 1575.66 266.979C1570.64 269.751 1564.49 269.924 1558.77 269.664C1545.52 268.972 1530.54 265.334 1524.39 253.554C1523.26 262.562 1529.5 271.397 1537.47 275.814C1545.52 280.231 1554.96 281.184 1564.14 281.357C1572.8 281.531 1581.55 281.098 1589.87 278.586C1598.1 276.074 1605.11 270.444 1610.05 263.342Z" fill="#DFF2FD"/>
<path d="M268.763 118.71C266.859 85.7394 271.263 55.6256 296.497 32.8915C317.921 13.4901 346.25 2.53967 374.935 0.397188C400.883 -1.38821 427.902 2.6587 450.041 16.3468C406.12 10.0384 357.676 12.1808 322.563 39.3189C313.636 46.3415 305.662 54.7924 300.424 64.7906C294.354 75.9792 291.854 88.8341 292.093 101.57C292.688 131.208 308.637 159.417 331.847 177.747C354.939 196.077 384.814 205.004 414.333 205.718C384.219 212.741 351.487 207.742 324.706 192.149C297.925 176.676 270.549 149.657 268.763 118.71Z" fill="#F5FBFF"/>
<path d="M613.33 245.966C618.585 244.67 624.2 244.814 629.383 246.469C625.712 218.035 649.827 188.233 677.901 195.504C667.319 196.152 657.097 201.407 650.331 209.613C643.564 217.819 640.037 228.473 639.893 239.055C639.821 243.23 640.253 247.405 641.836 251.22C645.867 261.37 656.665 266.841 666.815 270.801C657.241 273.032 647.451 267.849 639.533 261.946C631.614 256.043 622.832 248.629 613.33 245.966Z" fill="#DFF2FD"/>
<path d="M816.112 320.831C785.159 345.666 736.425 344.586 706.695 318.383C677.828 342.138 631.326 340.411 604.331 314.64C593.102 319.103 578.992 321.047 570.066 312.912C563.228 306.721 562.004 295.276 567.259 287.717C571.938 303.266 594.253 309.673 607.427 300.171C603.395 294.34 601.308 287.141 601.596 280.015C615.993 296.428 638.74 304.922 660.336 301.97C681.932 299.091 701.656 284.838 711.23 265.258C711.734 278.071 709.934 290.957 705.903 303.05C734.265 331.556 780.264 339.115 816.112 320.831Z" fill="#DFF2FD"/>
<path d="M1859.02 146.734C1860.62 119.034 1856.92 93.7337 1835.72 74.6337C1817.72 58.3337 1793.92 49.1337 1769.82 47.3337C1748.02 45.8337 1725.32 49.2337 1706.72 60.7337C1743.62 55.4337 1784.32 57.2337 1813.82 80.0337C1821.32 85.9337 1828.02 93.0337 1832.42 101.434C1837.52 110.834 1839.62 121.634 1839.42 132.334C1838.92 157.234 1825.52 180.934 1806.02 196.334C1786.62 211.734 1761.52 219.234 1736.72 219.834C1762.02 225.734 1789.52 221.534 1812.02 208.434C1834.52 195.434 1857.52 172.734 1859.02 146.734Z" fill="#F5FBFF"/>
<path d="M1413.02 312.041C1385.12 312.541 1357.12 300.241 1338.52 279.341C1321.02 293.841 1297.52 300.941 1274.92 298.541C1252.22 296.141 1230.82 284.241 1216.72 266.341C1201.32 273.841 1183.22 278.241 1167.12 272.341C1151.02 266.541 1139.22 247.441 1145.92 231.741C1146.52 245.341 1160.62 256.441 1173.82 260.041C1187.02 263.741 1201.12 261.441 1214.42 258.341C1211.52 250.241 1210.92 241.341 1212.52 232.941C1222.82 247.241 1235.12 261.241 1251.62 267.041C1261.42 270.541 1272.02 270.941 1282.42 271.041C1295.12 271.141 1308.02 270.941 1320.22 267.241C1332.32 263.541 1343.82 255.741 1349.22 244.241C1341.12 261.441 1365.92 284.041 1377.72 292.441C1389.62 300.941 1403.12 307.041 1416.52 312.941" fill="#DFF2FD"/>
<path d="M1956.56 255.074C1897.37 222.483 1892.08 128.238 1954.44 96.7059C1959.14 94.235 1965.38 91.0582 1971.38 88.7051C1940.2 103.765 1924.08 139.769 1923.49 174.478C1923.26 192.362 1926.32 211.423 1938.08 225.071C1948.56 237.308 1965.03 243.426 1981.15 244.367C1997.27 245.426 2013.39 241.661 2028.8 237.072C2010.56 254.25 1978.56 267.311 1956.56 255.074Z" fill="#DFF2FD"/>
<path d="M2227.3 284.489C2237.54 269.428 2236.48 247.661 2224.83 233.66C2213.18 219.776 2191.88 214.835 2175.29 222.247C2187.53 220.012 2199.3 231.542 2201.77 243.779C2204.12 256.015 2199.06 268.605 2191.77 278.723C2188.71 282.841 2185.18 286.842 2180.59 289.43C2173.76 293.195 2165.41 293.431 2157.65 293.078C2139.64 292.136 2119.29 287.195 2110.93 271.193C2109.41 283.43 2117.88 295.431 2128.7 301.431C2139.64 307.432 2152.47 308.726 2164.94 308.961C2176.71 309.197 2188.59 308.609 2199.88 305.196C2211.06 301.784 2220.59 294.136 2227.3 284.489Z" fill="#DFF2FD"/>
<path d="M2044.45 329.552C2031.74 339.67 2016.68 347.436 2000.56 349.201C1984.44 350.966 1967.15 346.024 1956.09 334.023C1905.37 347.789 1851.84 350.966 1799.83 343.318C1791.25 342.141 1782.42 340.494 1775.24 335.67C1767.95 330.964 1762.65 322.257 1764.3 313.786C1771.13 327.199 1789.36 330.14 1804.42 331.317C1821.84 332.846 1839.37 331.552 1856.31 327.669C1848.31 326.022 1841.02 321.786 1835.49 315.786C1881.84 327.081 1931.97 322.963 1975.85 304.138C1973.97 312.609 1979.26 321.551 1986.91 325.787C1994.44 330.023 2003.74 330.258 2012.33 328.611C2040.56 323.198 2063.27 296.372 2063.86 267.546C2068.33 288.607 2061.27 316.256 2044.45 329.552Z" fill="#F5FBFF"/>
</svg>
